# xmcd CD database file
#
# Track frame offsets:
#	150
#	13455
#	26867
#	40847
#	53523
#	66004
#	81215
#	95442
#	106574
#	123135
#	138548
#	149183
#	165860
#	177053
#	191619
#	203797
#
# Disc length: 2939 seconds
#
# Revision: 0
# Processed by: cddbd v1.5.2PL0 Copyright (c) Steve Scherf et al.
# Submitted via: CDex 1.70beta2
#
DISCID=d60b7910
DTITLE=Levia, Russel - Cdn. - ON - The Wayward Wind
DYEAR=1900
DGENRE=Country
TTITLE0=The Waward Wind
TTITLE1=Hobo Bills Last Ride
TTITLE2=He's Gort You
TTITLE3=The Three Bells
TTITLE4=Over the Garden Wall
TTITLE5=Little Buddy
TTITLE6=Dark As A Dungeon
TTITLE7=There Stands the Glass
TTITLE8=Tumbling Tumbleweeds
TTITLE9=Bringing Mary Back Home
TTITLE10=From A Jack To A King
TTITLE11=Lonesome Town
TTITLE12=Please Help Me I'm Falling
TTITLE13=Big Rock Candy Mountain
TTITLE14=My Daddy Is Only a Picture
TTITLE15=Sea of Heartbreak
EXTD=
EXTT0=
EXTT1=
EXTT2=
EXTT3=
EXTT4=
EXTT5=
EXTT6=
EXTT7=
EXTT8=
EXTT9=
EXTT10=
EXTT11=
EXTT12=
EXTT13=
EXTT14=
EXTT15=
PLAYORDER=
